<svg width="628" height="100" viewBox="0 0 628 100" fill="none" xmlns="http://www.w3.org/2000/svg">
<path d="M112.126 50.8349L0 100V50.4589L112.126 -1.18843e-06V50.8349Z" fill="url(#paint0_linear_58_52)"/>
<path d="M224.301 50.8349L112.174 100V50.4589L224.301 -1.18843e-06V50.8349Z" fill="url(#paint1_linear_58_52)"/>
<path d="M336.473 50.8349L224.346 100V50.4589L336.473 -1.18843e-06V50.8349Z" fill="url(#paint2_linear_58_52)"/>
<path d="M389.191 45.7559C385.931 45.7559 382.891 45.1607 380.072 43.9693C377.251 42.779 374.796 41.1397 372.706 39.0491C370.616 36.9596 368.977 34.537 367.787 31.7787C366.596 29.0205 366 26.0342 366 22.8165C366 19.5566 366.606 16.5599 367.818 13.8215C369.03 11.0855 370.721 8.68269 372.895 6.6143C375.066 4.54474 377.584 2.92651 380.447 1.75726C383.31 0.586851 386.391 0.00223045 389.692 0.00223045C393.494 0.00223045 396.963 0.702608 400.097 2.10219C403.23 3.50177 405.822 5.41349 407.869 7.83616L401.1 14.6061C399.722 12.7669 398.06 11.3778 396.117 10.4377C394.173 9.49765 392.011 9.02644 389.63 9.02644C387.039 9.02644 384.72 9.60171 382.673 10.7511C380.624 11.9004 379.027 13.5082 377.877 15.5765C376.728 17.6449 376.154 20.0582 376.154 22.8165C376.154 25.5326 376.719 27.9354 377.846 30.0237C378.974 32.1131 380.52 33.7524 382.484 34.9439C384.447 36.1342 386.704 36.7293 389.254 36.7293C391.802 36.7293 393.986 36.2406 395.803 35.2572C397.622 34.2762 399.02 32.8439 400.003 30.9638C400.984 29.0836 401.475 26.8282 401.475 24.1939L408.057 28.582L388.313 28.2687V19.9331H411.567V21.3748C411.567 26.6387 410.616 31.0889 408.714 34.7241C406.813 38.3604 404.18 41.1081 400.817 42.966C397.454 44.8263 393.578 45.7559 389.191 45.7559Z" fill="white"/>
<path d="M439.142 36.7293C441.776 36.7293 444.073 36.1447 446.038 34.9754C448.002 33.805 449.536 32.1751 450.643 30.0857C451.751 27.9974 452.306 25.5724 452.306 22.8165C452.306 20.7692 451.991 18.8984 451.365 17.2065C450.738 15.5134 449.839 14.0519 448.67 12.8183C447.499 11.5871 446.101 10.647 444.471 9.99809C442.841 9.3515 441.064 9.02645 439.142 9.02645C436.51 9.02645 434.201 9.60172 432.217 10.7499C430.231 11.9004 428.696 13.5082 427.61 15.5765C426.523 17.6449 425.98 20.0583 425.98 22.8165C425.98 24.9059 426.293 26.8059 426.92 28.5189C427.548 30.233 428.445 31.7062 429.616 32.9386C430.786 34.171 432.175 35.1111 433.784 35.7577C435.391 36.4066 437.178 36.7293 439.142 36.7293ZM439.269 45.7559C435.925 45.7559 432.833 45.1689 429.992 44.0008C427.15 42.8316 424.665 41.2017 422.533 39.1111C420.403 37.0228 418.75 34.5884 417.581 31.8091C416.412 29.031 415.826 26.0331 415.826 22.8165C415.826 19.5566 416.412 16.5482 417.581 13.7899C418.75 11.0317 420.38 8.61838 422.471 6.55116C424.559 4.48277 427.024 2.87506 429.867 1.72453C432.708 0.576333 435.8 0.00106652 439.142 0.00106652C442.443 0.00106652 445.506 0.576333 448.325 1.72453C451.146 2.87506 453.621 4.48277 455.752 6.55116C457.883 8.61838 459.523 11.0434 460.673 13.8215C461.821 16.6008 462.397 19.6186 462.397 22.8785C462.397 26.0962 461.811 29.0942 460.642 31.8723C459.471 34.6516 457.841 37.0742 455.752 39.1426C453.662 41.211 451.217 42.8316 448.419 44.0008C445.62 45.1689 442.568 45.7559 439.269 45.7559Z" fill="white"/>
<path d="M476.251 36.3531H498.125V45.002H476.251V36.3531ZM468.604 0.753147H478.506V45.002H468.604V0.753147Z" fill="white"/>
<path d="M510.533 45.002V36.3531H521.437C524.111 36.3531 526.442 35.8094 528.427 34.7231C530.411 33.6369 531.946 32.0807 533.033 30.0532C534.119 28.0281 534.663 25.6147 534.663 22.8144C534.663 20.0573 534.11 17.6651 533.002 15.6388C531.895 13.6113 530.348 12.0656 528.364 10.9992C526.378 9.9352 524.071 9.40203 521.437 9.40203H510.219V0.753138H521.563C524.905 0.753138 527.987 1.28514 530.809 2.35032C533.629 3.41667 536.094 4.94254 538.204 6.92557C540.314 8.91095 541.954 11.2412 543.125 13.9141C544.294 16.5894 544.88 19.5768 544.88 22.8764C544.88 26.0953 544.294 29.0511 543.125 31.7463C541.954 34.4402 540.324 36.7822 538.236 38.7652C536.146 40.7506 533.691 42.287 530.872 43.372C528.05 44.4594 524.989 45.002 521.69 45.002H510.533ZM503.764 0.753138H513.666V45.002H503.764V0.753138Z" fill="white"/>
<path d="M558.605 36.4782H582.924V45.002H558.605V36.4782ZM558.605 18.2392H580.668V26.5747H558.605V18.2392ZM558.605 0.753147H582.548V9.27693H558.605V0.753147ZM551.021 0.753147H560.924V45.002H551.021V0.753147Z" fill="white"/>
<path d="M620.092 45.002L617.46 36.1648V0.753138H627.426V45.002H620.092ZM620.092 45.002L594.081 11.5955L596.525 0.753138L622.6 34.1584L620.092 45.002ZM589.568 45.002V0.753138H596.525L599.471 9.59028V45.002H589.568Z" fill="white"/>
<path d="M379.852 55.6234H389.818V99.3086H379.852V55.6234ZM366 55.0598H403.607V63.7087H366V55.0598Z" fill="white"/>
<path d="M409.059 55.0598H418.961V99.3086H409.059V55.0598Z" fill="white"/>
<path d="M448.42 99.998C445.118 99.998 442.057 99.4228 439.238 98.2746C436.417 97.1252 433.951 95.507 431.843 93.4164C429.731 91.3281 428.09 88.8949 426.921 86.1156C425.752 83.3375 425.166 80.3384 425.166 77.1218C425.166 73.9041 425.752 70.9061 426.921 68.1268C428.09 65.3487 429.731 62.9354 431.843 60.8869C433.951 58.8407 436.406 57.2435 439.207 56.093C442.005 54.9448 445.076 54.3695 448.42 54.3695C451.929 54.3695 455.052 54.9331 457.791 56.0626C460.527 57.1897 462.919 58.7355 464.967 60.6998L458.323 67.4054C457.196 66.1532 455.805 65.171 454.156 64.4601C452.503 63.7504 450.592 63.3949 448.42 63.3949C446.498 63.3949 444.743 63.7188 443.155 64.3665C441.567 65.0155 440.188 65.9439 439.018 67.1552C437.848 68.3677 436.95 69.8304 436.323 71.5434C435.696 73.2563 435.383 75.1154 435.383 77.1218C435.383 79.2113 435.696 81.1007 436.323 82.7938C436.95 84.4857 437.848 85.9484 439.018 87.1808C440.188 88.4132 441.567 89.3533 443.155 90.001C444.743 90.65 446.498 90.9727 448.42 90.9727C450.676 90.9727 452.639 90.6277 454.311 89.9391C455.982 89.2492 457.403 88.2565 458.574 86.961L465.28 93.6678C463.19 95.673 460.768 97.2304 458.009 98.3377C455.251 99.4438 452.056 99.998 448.42 99.998Z" fill="white"/>
<path d="M497.373 99.3086L479.509 76.181L496.808 55.0598H509.03L489.475 78.0611V74.0506L509.72 99.3086H497.373ZM470.609 55.0598H480.512V99.3086H470.609V55.0598Z" fill="white"/>
<path d="M521.252 90.7848H545.57V99.3086H521.252V90.7848ZM521.252 72.5458H543.315V80.8814H521.252V72.5458ZM521.252 55.0598H545.195V63.5836H521.252V55.0598ZM513.668 55.0598H523.57V99.3086H513.668V55.0598Z" fill="white"/>
<path d="M561.74 55.6234H571.706V99.3086H561.74V55.6234ZM547.887 55.0598H585.494V63.7087H547.887V55.0598Z" fill="white"/>
<defs>
<linearGradient id="paint0_linear_58_52" x1="346.049" y1="-35.4286" x2="-21.1242" y2="72.7387" gradientUnits="userSpaceOnUse">
<stop stop-color="#DF9232"/>
<stop offset="0.321244" stop-color="#E7B277"/>
<stop offset="0.359925" stop-color="#E7B277"/>
<stop offset="0.521948" stop-color="#DF9232"/>
<stop offset="0.541457" stop-color="#DF9232"/>
<stop offset="0.975408" stop-color="#6E4013"/>
<stop offset="1" stop-color="#6E4013"/>
</linearGradient>
<linearGradient id="paint1_linear_58_52" x1="355.008" y1="-5.02186" x2="-12.1656" y2="103.145" gradientUnits="userSpaceOnUse">
<stop stop-color="#DF9232"/>
<stop offset="0.321244" stop-color="#E7B277"/>
<stop offset="0.359925" stop-color="#E7B277"/>
<stop offset="0.521948" stop-color="#DF9232"/>
<stop offset="0.541457" stop-color="#DF9232"/>
<stop offset="0.975408" stop-color="#6E4013"/>
<stop offset="1" stop-color="#6E4013"/>
</linearGradient>
<linearGradient id="paint2_linear_58_52" x1="363.964" y1="25.3849" x2="-3.20881" y2="133.552" gradientUnits="userSpaceOnUse">
<stop stop-color="#DF9232"/>
<stop offset="0.321244" stop-color="#E7B277"/>
<stop offset="0.359925" stop-color="#E7B277"/>
<stop offset="0.521948" stop-color="#DF9232"/>
<stop offset="0.541457" stop-color="#DF9232"/>
<stop offset="0.975408" stop-color="#6E4013"/>
<stop offset="1" stop-color="#6E4013"/>
</linearGradient>
</defs>
</svg>
